<svg width="137" height="32" viewBox="0 0 137 32" fill="none" xmlns="http://www.w3.org/2000/svg">
<g filter="url(#filter0_d_44_9)">
<path d="M38.4137 9.77166H36.4215C36.3647 9.44496 36.2599 9.15554 36.1072 8.90341C35.9545 8.64773 35.7646 8.43111 35.5373 8.25355C35.31 8.07599 35.0508 7.94283 34.7596 7.85405C34.4719 7.76172 34.1612 7.71555 33.8274 7.71555C33.2344 7.71555 32.7088 7.8647 32.2507 8.163C31.7926 8.45774 31.4339 8.89098 31.1747 9.46271C30.9155 10.0309 30.7859 10.7251 30.7859 11.5455C30.7859 12.38 30.9155 13.0831 31.1747 13.6548C31.4375 14.223 31.7962 14.6527 32.2507 14.9439C32.7088 15.2315 33.2326 15.3754 33.8221 15.3754C34.1488 15.3754 34.4542 15.3327 34.7383 15.2475C35.0259 15.1587 35.2834 15.0291 35.5107 14.8587C35.7415 14.6882 35.935 14.4787 36.0913 14.2301C36.2511 13.9815 36.3612 13.6974 36.4215 13.3778L38.4137 13.3885C38.3391 13.907 38.1776 14.3935 37.929 14.848C37.6839 15.3026 37.3626 15.7038 36.9648 16.0518C36.5671 16.3963 36.1019 16.6662 35.5692 16.8615C35.0366 17.0533 34.4453 17.1491 33.7955 17.1491C32.8366 17.1491 31.9808 16.9272 31.228 16.4833C30.4751 16.0394 29.8821 15.3984 29.4489 14.5604C29.0156 13.7223 28.799 12.7173 28.799 11.5455C28.799 10.37 29.0174 9.36506 29.4542 8.53054C29.891 7.69247 30.4858 7.05149 31.2386 6.6076C31.9915 6.16371 32.8438 5.94176 33.7955 5.94176C34.4027 5.94176 34.9673 6.02699 35.4893 6.19744C36.0114 6.3679 36.4766 6.61825 36.8849 6.94851C37.2933 7.27521 37.6289 7.67649 37.8917 8.15234C38.158 8.62464 38.332 9.16442 38.4137 9.77166ZM43.7071 17.1598C42.9081 17.1598 42.2156 16.984 41.6297 16.6325C41.0438 16.2809 40.5892 15.7891 40.2661 15.157C39.9465 14.5249 39.7867 13.7862 39.7867 12.9411C39.7867 12.0959 39.9465 11.3555 40.2661 10.7198C40.5892 10.0842 41.0438 9.59055 41.6297 9.23899C42.2156 8.88743 42.9081 8.71165 43.7071 8.71165C44.5061 8.71165 45.1986 8.88743 45.7845 9.23899C46.3705 9.59055 46.8232 10.0842 47.1428 10.7198C47.466 11.3555 47.6276 12.0959 47.6276 12.9411C47.6276 13.7862 47.466 14.5249 47.1428 15.157C46.8232 15.7891 46.3705 16.2809 45.7845 16.6325C45.1986 16.984 44.5061 17.1598 43.7071 17.1598ZM43.7178 15.6151C44.151 15.6151 44.5132 15.4961 44.8044 15.2582C45.0956 15.0167 45.3122 14.6935 45.4543 14.2887C45.5999 13.8839 45.6727 13.4329 45.6727 12.9357C45.6727 12.435 45.5999 11.9822 45.4543 11.5774C45.3122 11.169 45.0956 10.8441 44.8044 10.6026C44.5132 10.3612 44.151 10.2404 43.7178 10.2404C43.2739 10.2404 42.9046 10.3612 42.6098 10.6026C42.3186 10.8441 42.1002 11.169 41.9546 11.5774C41.8126 11.9822 41.7416 12.435 41.7416 12.9357C41.7416 13.4329 41.8126 13.8839 41.9546 14.2887C42.1002 14.6935 42.3186 15.0167 42.6098 15.2582C42.9046 15.4961 43.2739 15.6151 43.7178 15.6151ZM52.3004 17.1438C51.6577 17.1438 51.0824 16.9787 50.5746 16.6484C50.0668 16.3182 49.6655 15.8388 49.3707 15.2102C49.076 14.5817 48.9286 13.8182 48.9286 12.9197C48.9286 12.0107 49.0778 11.2436 49.3761 10.6186C49.6779 9.99006 50.0845 9.51598 50.5959 9.19638C51.1072 8.87322 51.6772 8.71165 52.3058 8.71165C52.7852 8.71165 53.1793 8.79332 53.4883 8.95668C53.7972 9.11648 54.0423 9.31001 54.2234 9.53729C54.4045 9.76101 54.5447 9.9723 54.6442 10.1712H54.7241V6.09091H56.6577V17H54.7614V15.7109H54.6442C54.5447 15.9098 54.4009 16.1211 54.2127 16.3448C54.0245 16.565 53.7759 16.7532 53.467 16.9094C53.158 17.0657 52.7692 17.1438 52.3004 17.1438ZM52.8384 15.5618C53.2468 15.5618 53.5948 15.4517 53.8825 15.2315C54.1701 15.0078 54.3885 14.6971 54.5376 14.2994C54.6868 13.9016 54.7614 13.4382 54.7614 12.9091C54.7614 12.38 54.6868 11.9201 54.5376 11.5295C54.392 11.1388 54.1754 10.8352 53.8878 10.6186C53.6037 10.402 53.2539 10.2937 52.8384 10.2937C52.4087 10.2937 52.0501 10.4055 51.7624 10.6293C51.4748 10.853 51.2582 11.1619 51.1126 11.5561C50.967 11.9503 50.8942 12.4013 50.8942 12.9091C50.8942 13.4205 50.967 13.8768 51.1126 14.2781C51.2617 14.6758 51.4801 14.9901 51.7678 15.2209C52.0589 15.4482 52.4158 15.5618 52.8384 15.5618ZM62.3346 17.1598C61.5143 17.1598 60.8058 16.9893 60.2093 16.6484C59.6162 16.304 59.1599 15.8175 58.8403 15.1889C58.5207 14.5568 58.3609 13.8129 58.3609 12.957C58.3609 12.1154 58.5207 11.3768 58.8403 10.7411C59.1634 10.1019 59.6144 9.60476 60.1933 9.24964C60.7721 8.89098 61.4521 8.71165 62.2334 8.71165C62.7377 8.71165 63.2135 8.79332 63.661 8.95668C64.1119 9.11648 64.5097 9.36506 64.8541 9.70241C65.2021 10.0398 65.4756 10.4695 65.6744 10.9915C65.8733 11.5099 65.9727 12.1278 65.9727 12.8452V13.4364H59.2664V12.1367H64.1244C64.1208 11.7674 64.0409 11.4389 63.8847 11.1513C63.7284 10.8601 63.51 10.631 63.2295 10.4641C62.9525 10.2972 62.6294 10.2138 62.26 10.2138C61.8659 10.2138 61.5196 10.3097 61.2213 10.5014C60.923 10.6896 60.6904 10.9382 60.5235 11.2472C60.3602 11.5526 60.2767 11.8881 60.2732 12.2539V13.3885C60.2732 13.8643 60.3602 14.2727 60.5342 14.6136C60.7082 14.951 60.9514 15.2102 61.2639 15.3913C61.5764 15.5689 61.9422 15.6577 62.3612 15.6577C62.6418 15.6577 62.8957 15.6186 63.123 15.5405C63.3502 15.4588 63.5473 15.3398 63.7142 15.1836C63.8811 15.0273 64.0072 14.8338 64.0924 14.603L65.8928 14.8054C65.7792 15.2812 65.5626 15.6967 65.243 16.0518C64.9269 16.4034 64.5221 16.6768 64.0285 16.8722C63.5349 17.0639 62.9703 17.1598 62.3346 17.1598ZM73.7058 17L70.627 6.09091H72.7523L74.7179 14.1076H74.8191L76.9178 6.09091H78.8514L80.9554 14.1129H81.0513L83.0169 6.09091H85.1422L82.0634 17H80.1138L77.9299 9.34553H77.8446L75.6554 17H73.7058ZM89.2145 17.1598C88.3942 17.1598 87.6857 16.9893 87.0891 16.6484C86.4961 16.304 86.0398 15.8175 85.7202 15.1889C85.4006 14.5568 85.2408 13.8129 85.2408 12.957C85.2408 12.1154 85.4006 11.3768 85.7202 10.7411C86.0433 10.1019 86.4943 9.60476 87.0732 9.24964C87.652 8.89098 88.332 8.71165 89.1133 8.71165C89.6175 8.71165 90.0934 8.79332 90.5408 8.95668C90.9918 9.11648 91.3896 9.36506 91.734 9.70241C92.082 10.0398 92.3555 10.4695 92.5543 10.9915C92.7532 11.5099 92.8526 12.1278 92.8526 12.8452V13.4364H86.1463V12.1367H91.0043C91.0007 11.7674 90.9208 11.4389 90.7646 11.1513C90.6083 10.8601 90.3899 10.631 90.1094 10.4641C89.8324 10.2972 89.5092 10.2138 89.1399 10.2138C88.7457 10.2138 88.3995 10.3097 88.1012 10.5014C87.8029 10.6896 87.5703 10.9382 87.4034 11.2472C87.2401 11.5526 87.1566 11.8881 87.1531 12.2539V13.3885C87.1531 13.8643 87.2401 14.2727 87.4141 14.6136C87.5881 14.951 87.8313 15.2102 88.1438 15.3913C88.4563 15.5689 88.8221 15.6577 89.2411 15.6577C89.5217 15.6577 89.7756 15.6186 90.0028 15.5405C90.2301 15.4588 90.4272 15.3398 90.5941 15.1836C90.761 15.0273 90.8871 14.8338 90.9723 14.603L92.7727 14.8054C92.6591 15.2812 92.4425 15.6967 92.1229 16.0518C91.8068 16.4034 91.402 16.6768 90.9084 16.8722C90.4148 17.0639 89.8501 17.1598 89.2145 17.1598ZM94.5692 17V6.09091H96.4974V10.1712H96.5773C96.6768 9.9723 96.817 9.76101 96.9981 9.53729C97.1792 9.31001 97.4243 9.11648 97.7332 8.95668C98.0422 8.79332 98.4363 8.71165 98.9157 8.71165C99.5479 8.71165 100.118 8.87322 100.626 9.19638C101.137 9.51598 101.542 9.99006 101.84 10.6186C102.142 11.2436 102.293 12.0107 102.293 12.9197C102.293 13.8182 102.146 14.5817 101.851 15.2102C101.556 15.8388 101.155 16.3182 100.647 16.6484C100.139 16.9787 99.5638 17.1438 98.9211 17.1438C98.4523 17.1438 98.0635 17.0657 97.7545 16.9094C97.4456 16.7532 97.197 16.565 97.0088 16.3448C96.8241 16.1211 96.6803 15.9098 96.5773 15.7109H96.4655V17H94.5692ZM96.4601 12.9091C96.4601 13.4382 96.5347 13.9016 96.6839 14.2994C96.8366 14.6971 97.055 15.0078 97.339 15.2315C97.6267 15.4517 97.9747 15.5618 98.3831 15.5618C98.8092 15.5618 99.1661 15.4482 99.4537 15.2209C99.7414 14.9901 99.958 14.6758 100.104 14.2781C100.253 13.8768 100.327 13.4205 100.327 12.9091C100.327 12.4013 100.255 11.9503 100.109 11.5561C99.9633 11.1619 99.7467 10.853 99.4591 10.6293C99.1714 10.4055 98.8128 10.2937 98.3831 10.2937C97.9711 10.2937 97.6214 10.402 97.3337 10.6186C97.0461 10.8352 96.8277 11.1388 96.6785 11.5295C96.5329 11.9201 96.4601 12.38 96.4601 12.9091Z" fill="white"/>
<path d="M19 19L12 12L19 5" stroke="#4D09D4" stroke-width="2" stroke-linecap="round" stroke-linejoin="round"/>
<path d="M114 5L121 12L114 19" stroke="#4D09D4" stroke-width="2" stroke-linecap="round" stroke-linejoin="round"/>
</g>
<defs>
<filter id="filter0_d_44_9" x="0" y="0" width="137" height="32" filterUnits="userSpaceOnUse" color-interpolation-filters="sRGB">
<feFlood flood-opacity="0" result="BackgroundImageFix"/>
<feColorMatrix in="SourceAlpha" type="matrix" values="0 0 0 0 0 0 0 0 0 0 0 0 0 0 0 0 0 0 127 0" result="hardAlpha"/>
<feOffset dy="4"/>
<feGaussianBlur stdDeviation="2"/>
<feComposite in2="hardAlpha" operator="out"/>
<feColorMatrix type="matrix" values="0 0 0 0 0 0 0 0 0 0 0 0 0 0 0 0 0 0 0.25 0"/>
<feBlend mode="normal" in2="BackgroundImageFix" result="effect1_dropShadow_44_9"/>
<feBlend mode="normal" in="SourceGraphic" in2="effect1_dropShadow_44_9" result="shape"/>
</filter>
</defs>
</svg>
